<?xml version="1.0" encoding="UTF-8"?>
<svg xmlns="http://www.w3.org/2000/svg" version="1.1" viewBox="0 0 1735.1 1621.3">
  <defs>
    <style>
      .cls-1 {
        fill: #ffea00;
      }
    </style>
  </defs>
  <!-- Generator: Adobe Illustrator 28.7.4, SVG Export Plug-In . SVG Version: 1.2.0 Build 166)  -->
  <g>
    <g id="Layer_1">
      <g id="icon">
        <path class="cls-1" d="M1105.9,774.5c-3.7-5.8-12.2-5.8-15.9,0l-149.2,231.5c-4,6.3.5,14.6,7.9,14.6h298.4c7.5,0,12-8.3,7.9-14.6l-149.2-231.5h0Z"/>
        <path class="cls-1" d="M1320.6,665l-190.8-235.5c-5.6-6.9-16.8-3-16.8,6v297.8c0,2.9,1.3,5.6,3.6,7.4l94.2,75.3c2.6,2.1,6.1,2.6,9.2,1.5l98.6-37.4c3.7-1.4,6.2-5,6.1-9l-2.1-100.1c0-2.1-.8-4.1-2.1-5.8h0v-.2Z"/>
        <path class="cls-1" d="M985.2,815.8l94.2-75.3c2.2-1.8,3.6-4.5,3.6-7.4v-297.8c0-8.9-11.2-12.9-16.8-6l-190.8,235.6c-1.3,1.6-2.1,3.7-2.1,5.8l-2.1,100.1c0,4,2.4,7.6,6.1,9l98.6,37.4c3.1,1.2,6.6.6,9.2-1.5h.1Z"/>
        <path class="cls-1" d="M762.5,427.3c-.7-1.1-2.4-1.1-3.2,0l-29.6,45.9c-.8,1.2,0,2.9,1.6,2.9h59.2c1.5,0,2.4-1.6,1.6-2.9l-29.6-45.9h0Z"/>
        <path class="cls-1" d="M805,405.6l-37.8-46.7c-1.1-1.4-3.3-.6-3.3,1.2v59.1c0,.6.3,1.1.7,1.5l18.7,14.9c.5.4,1.2.5,1.8.3l19.6-7.4c.7-.3,1.2-1,1.2-1.8l-.4-19.9c0-.4-.2-.8-.4-1.1h0Z"/>
        <path class="cls-1" d="M738.5,435.5l18.7-14.9c.5-.4.7-.9.7-1.5v-59.1c0-1.8-2.2-2.5-3.3-1.2l-37.8,46.7c-.3.3-.4.7-.4,1.1l-.4,19.9c0,.8.5,1.5,1.2,1.8l19.6,7.4c.6.2,1.3.1,1.8-.3h0Z"/>
        <path class="cls-1" d="M736.6,296.5h48.3v27.5h18.6v-67.8c0-9.7-7.9-17.5-17.7-17.5h-50.1c-9.7,0-17.5,7.8-17.5,17.5v67.8h18.4v-27.5h0ZM736.6,257.2h48.3v20.9h-48.3v-20.9Z"/>
        <path class="cls-1" d="M1433.5,1056c.7,1.2,2.4,1.2,3.2,0l29.6-45.9c.8-1.2,0-2.9-1.6-2.9h-59.2c-1.5,0-2.4,1.6-1.6,2.9l29.6,45.9h0Z"/>
        <path class="cls-1" d="M1432.1,1123.2v-59.1c0-.6-.3-1.1-.7-1.5l-18.7-14.9c-.5-.4-1.2-.5-1.8-.3l-19.6,7.4c-.7.3-1.2,1-1.2,1.8l.4,19.8c0,.4.2.8.4,1.1l37.8,46.7c1.1,1.4,3.3.6,3.3-1.2h0v.2Z"/>
        <path class="cls-1" d="M1478.9,1054.9l-19.6-7.4c-.6-.2-1.3,0-1.8.3l-18.7,14.9c-.4.4-.7.9-.7,1.5v59.1c0,1.8,2.2,2.6,3.3,1.2l37.8-46.7c.3-.3.4-.7.4-1.1l.4-19.8c0-.8-.5-1.5-1.2-1.8h0v-.2Z"/>
        <path class="cls-1" d="M1459.4,1186.8h-48.3v-27.5h-18.6v67.8c0,9.7,7.9,17.5,17.7,17.5h50.1c9.7,0,17.5-7.8,17.5-17.5v-67.8h-18.4v27.5h0ZM1459.4,1226.1h-48.3v-20.8h48.3v20.8Z"/>
        <path class="cls-1" d="M578.4,472.9c0-.6-.5-1-1-1.3l-21.6-10.3c-.6-.3-1.3-.2-1.8.1l-17.4,11.6c-.7.4-1,1.2-.8,2l4.9,19.2c0,.4.3.8.7,1l47.4,37c1.4,1.1,3.4-.2,3-1.9l-13.3-57.6h0v.2Z"/>
        <path class="cls-1" d="M627.5,474.3l-4.1-19.4c-.2-.8-.8-1.4-1.6-1.5l-20.7-2.8c-.7,0-1.3.2-1.7.7l-14.9,18.8c-.3.5-.5,1-.4,1.6l13.3,57.6c.4,1.7,2.7,2,3.5.4l26.4-54c.2-.4.2-.8.2-1.2h0v-.2Z"/>
        <path class="cls-1" d="M540,401.3l47.1-10.9,6.2,26.8,18.1-4.2-15.2-66c-2.2-9.5-11.7-15.3-21.1-13.1l-48.8,11.3c-9.5,2.2-15.3,11.6-13.1,21l15.2,66,17.9-4.1-6.2-26.8h-.1ZM531.2,362.9l47.1-10.9,4.7,20.3-47.1,10.9-4.7-20.3Z"/>
        <path class="cls-1" d="M415.5,526.4l12,24.7,16.7-8.2-29.7-60.9c-4.3-8.7-14.8-12.3-23.5-8l-45,22c-8.7,4.3-12.3,14.7-8.1,23.4l29.7,60.9,16.5-8-12-24.7,43.5-21.2h-.1ZM363.9,530.9l-9.1-18.7,43.5-21.2,9.1,18.7-43.5,21.2Z"/>
        <path class="cls-1" d="M496.4,684.1l-41.5-25.1c-1-.6-2.4,0-2.5,1.2l-5.8,48.2c-.2,1.3,1.2,2.3,2.4,1.7l23.6-11.5,23.6-11.5c1.2-.6,1.3-2.2.1-2.9h0Z"/>
        <path class="cls-1" d="M439.8,594.2l-15.5-1.1c-1.9,0-3.7.8-4.8,2.3l-8.7,12.9c-1.1,1.6-1.2,3.6-.4,5.3l6.8,14c.8,1.7,2.5,2.8,4.4,3l15.5,1.1c1.9,0,3.7-.8,4.8-2.3l8.7-12.9c1.1-1.6,1.2-3.6.4-5.3l-6.8-14c-.8-1.7-2.5-2.8-4.4-3Z"/>
        <path class="cls-1" d="M446,637.6l6.8,14c.8,1.7,2.5,2.8,4.4,3l15.5,1.1c1.9,0,3.7-.8,4.8-2.3l8.7-12.9c1.1-1.6,1.2-3.6.4-5.3l-6.8-14c-.8-1.7-2.5-2.8-4.4-3l-15.5-1.1c-1.9,0-3.7.8-4.8,2.3l-8.7,12.9c-1.1,1.6-1.2,3.6-.4,5.3Z"/>
        <path class="cls-1" d="M447.9,654l-6.8-14c-.8-1.7-2.5-2.8-4.4-3l-15.5-1.1c-1.9,0-3.7.8-4.8,2.3l-8.7,12.9c-1.1,1.6-1.2,3.6-.4,5.3l6.8,14c.8,1.7,2.5,2.8,4.4,3l15.5,1.1c1.9,0,3.7-.8,4.8-2.3l8.7-12.9c1.1-1.6,1.2-3.6.4-5.3Z"/>
        <path class="cls-1" d="M244.4,651l-38.9,31.5c-7.6,6.1-8.7,17.1-2.6,24.7l42.7,52.7,14.3-11.6-17.3-21.4,37.6-30.4,17.3,21.4,14.5-11.7-42.6-52.7c-6.1-7.5-17.2-8.6-24.8-2.5h-.2ZM268.4,682.1l-37.6,30.4-13.1-16.2,37.6-30.4,13.1,16.2Z"/>
        <path class="cls-1" d="M339.3,813c-.6-.8-1.8-.9-2.6-.3l-29.7,24.1c-1.2,1-.7,2.9.8,3.2l60.2,13.5c1.7.4,2.9-1.6,1.8-2.9l-30.5-37.6h0Z"/>
        <path class="cls-1" d="M344.2,809l30.5,37.6c1.1,1.3,3.3.6,3.3-1.2l-.7-61.7c0-1.5-1.8-2.4-3-1.4l-29.7,24.1c-.8.6-.9,1.8-.3,2.6h0Z"/>
        <path class="cls-1" d="M307.7,764l30.5,37.6c.6.8,1.8.9,2.6.3l29.7-24.1c1.2-1,.7-2.9-.8-3.2l-60.2-13.5c-1.7-.4-2.9,1.6-1.8,2.9h0Z"/>
        <path class="cls-1" d="M333.3,805.5l-30.5-37.6c-1.1-1.3-3.3-.6-3.3,1.2l.7,61.7c0,1.5,1.8,2.4,3,1.4l29.7-24.1c.8-.6.9-1.8.3-2.6h0Z"/>
        <path class="cls-1" d="M1548.4,1163.6l-.8-3.3V217.1l-95-95h-171.2l-83-51.9-166.8,38.5-92.6-31.9-92.8,45.2h-103.2l-69.2,69.2-166.8,38.5-51.9,83-153.8,75-43.7,127,406.7,833.9L150.2,713.6l11.7-111.7,99.2-80.3-3.2-6.7,11.9-34.5-133,107.7-14,133.6,593.6,733-5.8-11.8,7.2,14.9,127,43.7,230.9-112.6-2.7,1.3-164.6,133.3-111.7-11.7-30.2-37.2-47.3-16.3,63.8,78.8,133.6,14,234.5-189.9h301.8l95-95v-101.3l.8-1.2h-.3ZM1231.5,122.2h-139.7l102-23.5,37.7,23.6h0ZM941,105.6l42,14.5-9.1,2.1h-66.9l34-16.6ZM524,253.2l124.3-28.7v920.3l-183.9-796.4,59.5-95.3h0ZM695.5,1349.3l-10.8-46.7,58.6,58.6h253.8l-206.4,47.6-95.3-59.5h.1ZM323.1,406.9l114.7-55.9-1.7-7.2,208.7,904-358.3-734.6,36.6-106.2h0ZM843,1472.9l-106.2-36.6-21-43.1,70.2,43.9,329-76h0l-81.7,18.9-190.3,92.8h0ZM1521.2,1255.2l-79.4,79.4h-265.1,10.3-432.7l-79.4-79.4V228.1l12.6-12.6h0l17.5-17.5,13.3-13.3h0l-11.2,11.2,15.8-15.8h0l31.4-31.4h687.5l79.4,79.4v817.3h0v32.5h0v129.4h0v47.9h0Z"/>
      </g>
    </g>
  </g>
</svg>